# Blender 4.0.2
# www.blender.org
mtllib blade.mtl
o Cube
v 0.129076 0.064366 -7.406495
v 0.129076 -0.064366 -7.406495
v 0.129076 -0.062235 7.131138
v 0.129076 -0.064366 7.131138
v -0.129076 -0.054132 -7.131138
v -0.129076 -0.064366 -7.131138
v -0.129076 0.064366 7.409660
v -0.129076 -0.064366 7.409660
vn 0.0160 0.9999 0.0003
vn 0.7334 -0.0000 0.6798
vn -1.0000 -0.0000 -0.0000
vn -0.0000 -1.0000 -0.0000
vn 1.0000 -0.0000 -0.0000
vn -0.7295 -0.0000 -0.6839
vt 0.625000 0.036111
vt 0.875000 0.625000
vt 0.875000 0.775000
vt 0.625000 0.150000
vt 0.589167 0.750000
vt 0.614167 0.734722
vt 0.727500 1.000000
vt 0.695833 1.000000
vt 0.458333 0.000000
vt 0.504167 0.000000
vt 0.663333 0.380556
vt 0.565833 0.250000
vt 0.140833 0.222222
vt 0.244167 0.222222
vt 0.428333 0.750000
vt 0.270833 0.750000
vt 0.477500 0.500000
vt 0.516667 0.500000
vt 0.625000 0.750000
vt 0.581667 0.750000
vt 0.570000 0.250000
vt 0.613333 0.250000
vt 0.714167 0.500000
vt 0.682500 0.500000
s 0
usemtl Material
f 1/1/1 5/2/1 7/3/1 3/4/1
f 4/5/2 3/6/2 7/7/2 8/8/2
f 8/9/3 7/10/3 5/11/3 6/12/3
f 6/13/4 2/14/4 4/15/4 8/16/4
f 2/17/5 1/18/5 3/19/5 4/20/5
f 6/21/6 5/22/6 1/23/6 2/24/6
