# Blender 4.0.2
# www.blender.org
mtllib textures/road2.mtl
o Cube
v 7.975668 0.153257 -10.114342
v 7.975668 0.011650 -10.114342
v 7.975668 0.153257 8.760036
v 7.975668 0.011650 8.760036
v -8.196733 0.153257 -10.114342
v -8.196733 0.011650 -10.114342
v -8.196733 0.153257 8.760036
v -8.196733 0.011650 8.760036
vn -0.0000 1.0000 -0.0000
vn -0.0000 -0.0000 1.0000
vn -1.0000 -0.0000 -0.0000
vn -0.0000 -1.0000 -0.0000
vn 1.0000 -0.0000 -0.0000
vn -0.0000 -0.0000 -1.0000
vt -0.003272 -0.003197
vt 0.996605 -0.003197
vt 0.996605 0.996978
vt -0.003272 0.996978
vt 0.375000 0.750000
vt 0.625000 0.750000
vt 0.625000 1.000000
vt 0.375000 1.000000
vt 0.004906 0.003040
vt 0.995094 0.003040
vt 0.995094 0.993228
vt 0.004906 0.993228
vt 0.125000 0.500000
vt 0.375000 0.500000
vt 0.125000 0.750000
vt 0.625000 0.500000
vt 0.375000 0.250000
vt 0.625000 0.250000
s 0
usemtl Material
f 1/1/1 5/2/1 7/3/1 3/4/1
f 4/5/2 3/6/2 7/7/2 8/8/2
f 8/9/3 7/10/3 5/11/3 6/12/3
f 6/13/4 2/14/4 4/5/4 8/15/4
f 2/14/5 1/16/5 3/6/5 4/5/5
f 6/17/6 5/18/6 1/16/6 2/14/6
o Cube.001
v -9.256049 0.000000 8.725451
v -9.256049 0.480085 8.745726
v -9.256049 0.000000 -10.041525
v -9.256049 0.480085 -10.126184
v -8.077200 0.000000 8.745726
v -8.077200 0.480085 8.745726
v -8.077200 0.000000 -10.041525
v -8.077200 0.480085 -10.126184
vn -1.0000 -0.0000 -0.0000
vn -0.0000 -0.1737 -0.9848
vn 1.0000 -0.0000 -0.0000
vn -0.0086 -0.0211 0.9997
vn -0.0000 -1.0000 -0.0000
vn -0.0000 1.0000 -0.0000
vt 0.375000 0.000000
vt 0.625000 0.000000
vt 0.625000 0.250000
vt 0.375000 0.250000
vt 0.625000 0.500000
vt 0.375000 0.500000
vt 0.625000 0.750000
vt 0.375000 0.750000
vt 0.625000 1.000000
vt 0.375000 1.000000
vt 0.125000 0.500000
vt 0.125000 0.750000
vt 0.443000 0.004000
vt 0.527000 0.004000
vt 0.527000 1.006000
vt 0.443000 1.006000
s 0
usemtl Material.002
f 9/19/7 10/20/7 12/21/7 11/22/7
f 11/22/8 12/21/8 16/23/8 15/24/8
f 15/24/9 16/23/9 14/25/9 13/26/9
f 13/26/10 14/25/10 10/27/10 9/28/10
f 11/29/11 15/24/11 13/26/11 9/30/11
f 16/31/12 12/32/12 10/33/12 14/34/12
o Cube.004
v -13.412511 -0.000000 8.693575
v -13.412511 0.419996 8.721794
v -13.412511 -0.000000 -10.010633
v -13.412511 0.419996 -10.095293
v -9.237569 -0.000000 8.693575
v -9.237569 0.419996 8.721794
v -9.237569 -0.000000 -10.010633
v -9.237569 0.419996 -10.095293
vn -1.0000 -0.0000 -0.0000
vn -0.0000 -0.1976 -0.9803
vn 1.0000 -0.0000 -0.0000
vn -0.0000 -0.0670 0.9978
vn -0.0000 -1.0000 -0.0000
vn -0.0000 1.0000 -0.0000
vt 0.375000 0.000000
vt 0.625000 0.000000
vt 0.625000 0.250000
vt 0.375000 0.250000
vt 0.625000 0.500000
vt 0.375000 0.500000
vt 0.625000 0.750000
vt 0.375000 0.750000
vt 0.625000 1.000000
vt 0.375000 1.000000
vt 0.125000 0.500000
vt 0.125000 0.750000
vt -1.590179 -0.000465
vt -1.590179 1.015773
vt 2.598707 1.015774
vt 2.598707 -0.000464
s 0
usemtl Material.001
f 17/35/13 18/36/13 20/37/13 19/38/13
f 19/38/14 20/37/14 24/39/14 23/40/14
f 23/40/15 24/39/15 22/41/15 21/42/15
f 21/42/16 22/41/16 18/43/16 17/44/16
f 19/45/17 23/40/17 21/42/17 17/46/17
f 24/47/18 20/48/18 18/49/18 22/50/18
